<svg width="176" height="63" viewBox="0 0 176 63" fill="none" xmlns="http://www.w3.org/2000/svg">
<path fill-rule="evenodd" clip-rule="evenodd" d="M123.148 0.14346C116.501 1.16153 112.971 1.84454 107.806 3.11192C89.8291 7.52326 73.4589 14.5744 59.0198 24.1255C52.2557 28.5999 45.9757 33.597 40.8737 38.5645L38.6829 40.6976L42.1814 44.2903L45.6798 47.883L46.7502 46.5928C50.5904 41.9631 58.0122 34.3709 62.7018 30.2749C79.2516 15.8202 96.9167 6.28964 115.32 1.88658C117.453 1.37632 121.161 0.656178 123.915 0.21756C124.699 0.0926785 125.031 -0.00136574 124.682 1.50086e-05C124.345 0.00139576 123.654 0.0659849 123.148 0.14346ZM142.709 20.9069V23.7451H159.201H175.693V20.9069V18.0687H159.201H142.709V20.9069ZM97.4507 21.0704V23.9189L110.299 23.8891C122.227 23.8617 123.195 23.8789 123.806 24.1282C124.887 24.5697 124.989 24.9063 124.989 28.0407C124.989 31.1681 124.888 31.5034 123.806 31.9661C123.193 32.2281 122.293 32.2543 110.645 32.351C103.768 32.4081 97.9857 32.4625 97.7959 32.4722L97.4507 32.4898V41.4675V50.4451L101.171 50.404L104.891 50.3629L104.931 44.1111L104.971 37.8594L115.824 37.8568C127.321 37.8539 127.812 37.8272 129.415 37.1184C130.429 36.6697 131.258 35.8331 131.756 34.7546L132.2 33.7939L132.245 28.3611C132.288 23.2686 132.272 22.8643 131.98 21.9047C131.604 20.6678 130.738 19.6077 129.652 19.0576C127.993 18.2169 128.201 18.2268 112.217 18.2244L97.4507 18.2221V21.0704ZM1.4346 20.6531C2.22377 21.4839 8.91013 28.5597 16.2933 36.3772L29.7173 50.5908L36.6957 50.5919L43.6742 50.593L42.9858 49.9146C42.6072 49.5415 35.3272 42.4651 26.8082 34.1894L11.3189 19.1426H5.65939H0L1.4346 20.6531ZM81.5721 25.3949C81.0658 25.7881 79.3917 27.1383 77.8517 28.3953L75.0519 30.6806V40.56V50.4396H78.8106H82.5693V37.5526C82.5693 30.4647 82.5521 24.6688 82.5309 24.6728C82.5098 24.6768 82.0783 25.0017 81.5721 25.3949ZM142.709 40.7743V50.4396H159.354H176V47.3712V44.3029H163.113H150.226V40.3908V36.4787H157.667H165.107V33.7939V31.1091H153.908H142.709V40.7743ZM37.1836 56.0793C37.2117 56.1434 38.0973 57.6277 39.1518 59.3778L41.0689 62.5595H41.6236H42.1784L44.0405 59.3431C45.0648 57.5742 45.9027 56.0899 45.9027 56.0446C45.9027 55.9995 45.536 55.9626 45.0881 55.9626H44.2733L43.008 58.2638C42.3121 59.5295 41.7186 60.5651 41.6891 60.5651C41.6597 60.5651 41.0359 59.5295 40.303 58.2638L38.9704 55.9626H38.0515C37.546 55.9626 37.1554 56.015 37.1836 56.0793ZM51.5385 56.0543C51.4765 56.1163 51.4257 57.6053 51.4257 59.3633V62.5595H52.2695H53.1133V61.2554V59.9514H55.6276C58.8601 59.9514 58.8664 59.9477 58.8664 58.0515C58.8664 56.8898 58.8261 56.6979 58.5172 56.3888C58.1793 56.0505 58.0639 56.0377 54.9098 55.9903C53.1176 55.9635 51.6006 55.9923 51.5385 56.0543ZM60.7841 59.261V62.5595H64.3214H67.8589L67.8117 61.9075L67.7646 61.2554L65.1181 61.2134L62.4717 61.1715V60.4903V59.809L63.9675 59.7651L65.4633 59.7213L65.5109 59.146L65.5586 58.5706H64.0151H62.4717V57.8803V57.1899H65.0798H67.6879V56.5762V55.9626H64.236H60.7841V59.261ZM70.5107 56.1816C69.9095 56.4434 69.8357 56.6474 69.8357 58.0463C69.8357 59.7941 69.8426 59.798 73.0575 59.798H75.6655V60.4883V61.1787H73.3643C71.1654 61.1787 71.063 61.1651 71.063 60.8719C71.063 60.542 70.8331 60.496 70.0083 60.6609C69.4868 60.7653 69.3917 61.1051 69.6754 61.8508C69.9083 62.4636 70.6477 62.5888 73.7056 62.5326C76.2985 62.4851 76.4411 62.4665 76.774 62.133C77.0826 61.8235 77.123 61.6313 77.123 60.4701C77.123 58.5674 77.1285 58.5706 73.7988 58.5706H71.1988L71.2461 57.9186L71.2932 57.2666L73.4793 57.2241L75.6655 57.1815V57.5722C75.6655 57.9188 75.7131 57.9522 76.0874 57.8689C76.9835 57.6695 77.0463 57.6288 77.0463 57.2462C77.0463 56.635 76.7783 56.2946 76.1623 56.1235C75.3022 55.8846 71.0934 55.9279 70.5107 56.1816ZM78.6852 56.0623C78.6277 56.12 78.5805 56.3972 78.5805 56.6786V57.1899H80.1913H81.8022V59.8747V62.5595H82.5693H83.3364V59.8747V57.1899H84.9564H86.5767L86.529 56.6146L86.4814 56.0393L82.6357 55.9983C80.5207 55.9758 78.7429 56.0046 78.6852 56.0623ZM88.1514 56.1833C88.1047 56.3047 88.0897 57.6147 88.1178 59.0943C88.1872 62.7416 87.8904 62.4828 92.0044 62.4828C96.1494 62.4828 95.8398 62.771 95.8398 58.9118V56.0393L95.0344 55.9929L94.229 55.9464V58.5627V61.1787H92.0044H89.7799V58.5706V55.9626H89.008C88.478 55.9626 88.2095 56.0317 88.1514 56.1833ZM98.3712 59.261V62.5931L101.171 62.5335C103.795 62.4776 104.025 62.4489 104.829 62.0761C105.808 61.6218 106.252 61.0871 106.515 60.0425C106.914 58.4576 106.011 56.7134 104.556 56.2605C104.234 56.1602 102.711 56.0446 101.171 56.0035L98.3712 55.929V59.261ZM113.446 56.0653C112.736 56.2132 112.639 56.6063 112.639 59.3482C112.639 61.7462 112.658 61.9157 112.962 62.1905C113.26 62.4601 113.559 62.4828 116.811 62.4828C121.274 62.4828 120.923 62.7572 120.923 59.261C120.923 55.7858 121.232 56.0456 117.063 56.0166C115.263 56.004 113.635 56.0259 113.446 56.0653ZM128.802 56.0687C128.621 56.1042 128.345 56.2746 128.188 56.4475C127.936 56.7267 127.904 57.0429 127.904 59.2728C127.904 62.6552 127.71 62.4659 131.245 62.5328C134.977 62.6034 135.345 62.4482 135.345 60.8053C135.345 60.1614 135.33 60.1425 134.769 60.0499C133.7 59.8731 133.657 59.8931 133.657 60.5651V61.1787H131.586H129.515V59.261V57.3433H131.586H133.657V57.8803C133.657 58.4669 133.721 58.4921 134.769 58.3187C135.317 58.2282 135.345 58.1952 135.345 57.64C135.345 56.6914 135.123 56.3074 134.47 56.1261C133.921 55.9738 129.516 55.9291 128.802 56.0687ZM138.314 56.0687C138.133 56.1042 137.857 56.2746 137.7 56.4475C137.448 56.7267 137.416 57.0429 137.416 59.2728C137.416 62.739 137.078 62.4828 141.653 62.4828C146.114 62.4828 145.777 62.7339 145.777 59.4074C145.777 58.1144 145.713 56.8878 145.634 56.6818C145.402 56.0706 144.763 55.9607 141.573 55.9834C139.962 55.9949 138.495 56.0333 138.314 56.0687ZM148.181 56.0649C148.124 56.121 148.078 57.6053 148.078 59.3633V62.5595H148.764H149.45L149.493 60.4635L149.536 58.3675L150.916 60.0698C151.676 61.0061 152.374 61.7767 152.467 61.7823C152.561 61.7878 153.269 60.9883 154.04 60.0055L155.442 58.2189V60.3891V62.5595H156.209H156.976V59.261V55.9626H156.367C155.775 55.9626 155.713 56.0158 154.271 57.7652C153.453 58.7566 152.738 59.6223 152.681 59.6887C152.624 59.7553 151.861 58.9441 150.986 57.8861C149.484 56.0703 149.364 55.9626 148.839 55.9626C148.533 55.9626 148.237 56.0086 148.181 56.0649ZM47.2835 59.3377V62.5595H48.1273H48.971V59.3377V56.116H48.1273H47.2835V59.3377ZM108.65 59.3377V62.5595H109.494H110.338V59.3377V56.116H109.494H108.65V59.3377ZM57.2272 57.9418C57.2583 58.3781 57.2042 58.6622 57.0737 58.7449C56.9628 58.8152 56.0264 58.8738 54.9926 58.8752L53.1133 58.8775V58.0292V57.181L55.1461 57.2238L57.1788 57.2666L57.2272 57.9418ZM104.117 57.5547C104.69 57.93 105.019 58.7744 104.898 59.5565C104.698 60.838 104.021 61.1787 101.675 61.1787H100.059V59.1654V57.152L101.88 57.217C103.287 57.2672 103.796 57.3439 104.117 57.5547ZM119.389 59.261V61.1787H116.781H114.173V59.261V57.3433H116.781H119.389V59.261ZM144.089 59.261V61.1787H141.558H139.027V59.261V57.3433H141.558H144.089V59.261ZM123.291 60.3059C123.246 60.4241 123.23 60.9621 123.255 61.5017L123.301 62.4828L124.137 62.5302C124.597 62.5563 125.135 62.5369 125.333 62.4872C125.674 62.4015 125.69 62.3405 125.648 61.2892L125.603 60.1815L124.488 60.1364C123.643 60.1022 123.354 60.1432 123.291 60.3059Z" fill="white"/>
<path fill-rule="evenodd" clip-rule="evenodd" d="M123.148 0.14346C116.501 1.16153 112.971 1.84454 107.806 3.11192C89.8292 7.52326 73.459 14.5744 59.0199 24.1255C52.2558 28.5999 45.9758 33.597 40.8738 38.5645L38.683 40.6976L42.1815 44.2903L45.6799 47.883L46.7502 46.5928C50.5904 41.9631 58.0123 34.3709 62.7019 30.2749C79.2517 15.8202 96.9167 6.28964 115.32 1.88658C117.453 1.37632 121.161 0.656178 123.915 0.21756C124.699 0.0926785 125.031 -0.00136574 124.682 1.50086e-05C124.345 0.00139576 123.654 0.0659849 123.148 0.14346Z" fill="#6022EA"/>
</svg>
